<svg viewBox="0 0 1294 586" xmlns="http://www.w3.org/2000/svg">
  <path d="M624.508 11.8736L624.504 11.877L624.508 11.8736ZM13.5915 565.485C13.5913 565.485 13.5917 565.485 13.5915 565.485ZM468.858 565.485H452.312H468.858ZM1293 566V566.5H1293V566H1293ZM637.65 7.08612C625.763 -2.36217 609.261 -1.88717 598.211 7.06685L460.683 116.642C460.678 116.646 460.687 116.638 460.683 116.642C460.678 116.646 460.688 116.638 460.683 116.642L356.232 198.705C338.329 212.578 337.623 239.54 355.832 254.104C374.04 268.668 402.224 267.585 420.127 253.712L463.103 219.708V538.5C463.103 553.583 475.019 565.5 490.103 565.5C505.186 565.5 517.103 553.583 517.103 538.5V209.487L614.406 132.94L883.041 341.508V538.5C883.041 553.583 894.958 565.5 910.041 565.5C925.125 565.5 937.041 553.583 937.041 538.5V315.023L1176.57 492.338C1176.57 492.338 1176.57 492.338 1176.57 492.338C1194.57 505.577 1219.93 503.108 1234.61 486.547C1249.29 469.985 1246.74 444.483 1228.74 431.244L657.55 7.32269L637.65 7.08612Z" fill="#1D75F0"/>
  <path d="M0 566V585.999H19.9995H32.7095H111.709H113.356H203.505C239.806 585.999 272.32 559.297 278.818 524.099C279.729 519.164 280.189 514.209 280.189 509.333C280.189 473.931 263.931 442.703 238.933 422.447C213.935 402.19 183.853 391.047 153.809 391.047H75.5916V418.094V446.499V447.789V504.999H153.809C163.225 504.999 171.112 510.999 171.112 519.499C171.112 527.999 163.225 533.999 153.809 533.999H52.0455H42.9302H13.5915C6.51722 533.999 0 540.516 0 547.59V566ZM75.5916 418.094V418.094V411.999H75.5917V418.094Z" fill="#1D75F0"/>
  <path d="M300.23 509.334C300.23 435.334 356.172 379.666 434.569 379.666C519.299 379.666 569.543 444.887 569.543 508.999C569.543 515.833 568.912 522.211 567.921 528.41L567.866 528.758L567.874 529.108L568.189 544.166H568.689H588.102C595.176 544.166 601.689 550.683 601.689 557.757V566V585.999H621.665H632.188H702.334H704.044H750.19C757.264 585.999 763.781 579.482 763.781 572.408V555.409C763.781 548.335 757.264 541.818 750.19 541.818H735.477C723.491 541.818 714.218 531.631 715.35 519.705C724.916 420.653 659.289 359 565.334 359C482.334 359 429.334 411.5 403.5 443.5C429.639 471.255 441.5 501.334 441.5 501.334C452.932 524.208 473.619 530.957 495.405 530.957H519.45C529.088 530.957 540.045 537.363 539.853 547.012C539.752 552.179 536.475 556.918 531.582 558.63C521.403 562.194 510.514 564 499.098 564C489.477 564 475.883 560.999 460.803 550.7L460.801 550.699C459.079 549.525 459.721 548.199 458.198 547.141C456.766 546.15 452.718 544.311 448.202 544.311H427.703C420.629 544.311 414.112 550.828 414.112 557.902V566V585.999H434.089H436.231H508.231" fill="#1D75F0"/>
  <path d="M1016.41 566V585.999H1036.41H1047.04H1130.5C1165.67 585.999 1197.29 568.639 1217.33 542.499C1239.27 514.1 1245.31 476.296 1234.12 437.666C1221.33 394.047 1184.05 365.884 1136.5 363.228H1136.49H1056.5V383.999V391.382V566ZM1136.49 383.999H1136.5V383.999V383.999H1136.49Z" fill="#1D75F0"/>
</svg>
